inDegrees=yes
name=ik_lifting_orientations
DataType=double
version=3
OpenSimVersion=4.5-2024-01-10-34fd6af
endheader
time	pelvis_tilt	pelvis_list	pelvis_rotation	pelvis_tx	pelvis_ty	pelvis_tz	hip_flexion_r	hip_adduction_r	hip_rotation_r	knee_angle_r	knee_angle_r_beta	ankle_angle_r	subtalar_angle_r	mtp_angle_r	hip_flexion_l	hip_adduction_l	hip_rotation_l	knee_angle_l	knee_angle_l_beta	ankle_angle_l	subtalar_angle_l	mtp_angle_l	lumbar_extension	lumbar_bending	lumbar_rotation	arm_flex_r	arm_add_r	arm_rot_r	elbow_flex_r	pro_sup_r	wrist_flex_r	wrist_dev_r	arm_flex_l	arm_add_l	arm_rot_l	elbow_flex_l	pro_sup_l	wrist_flex_l	wrist_dev_l
1.34	-3.910448336255657	31.68531345535112	-82.7458389192501	0	0.9399999998679526	0	45.27171481618313	-10.01340432060407	0	60.15967389660329	1.049984386421814	-5.001891343631	0	0	45.27171481618313	-10.01340432060407	0	60.15967389660329	1.049984386421814	-5.001891343631	0	0	81.45862331741925	-6.042580667260227	-29.03280393689094	-39.29429845665893	-14.51901113328377	37.10652828901669	0.02107985592131531	0.4900383218165401	0	0	0	-13.42979464403435	0	89.52415853971409	0.4900383218165401	0	0
1.35	-3.666209107892593	30.31459011271583	-83.27591407854639	0	0.9399999998679526	0	45.27127261821392	-10.01332879811047	0	60.15946955888769	1.049980820055891	-5.001877486639418	0	0	45.27127261821392	-10.01332879811047	0	60.15946955888769	1.049980820055891	-5.001877486639418	0	0	78.38514080545428	-5.735569801113046	-29.15171995144265	-36.56157246676572	-13.42768007893842	37.8632637257686	0.02068476327857993	0.4894825474308935	0	0	0	-13.4311062721883	0	89.52469801278218	0.4894825474308935	0	0
1.36	-3.49926162368902	28.88952327589669	-83.71030983881276	0	0.9399999998679526	0	45.27090482914661	-10.0132662027047	0	60.15929948773076	1.04997785175424	-5.001866017117889	0	0	45.27090482914661	-10.0132662027047	0	60.15929948773076	1.04997785175424	-5.001866017117889	0	0	75.32110265303096	-5.459554084053232	-29.37369204073664	-33.98341016496822	-12.598441133375	38.85361311401849	0.02148467748362719	0.4890200414353545	0	0	0	-13.4321982036211	0	89.52514695309868	0.4890200414353545	0	0
1.37	-3.349789253649906	27.58962190963272	-84.05052858924343	0	0.9399999998679526	0	45.26201737535253	-10.01194194447007	0	60.15471217941871	1.04989778812039	-5.00163318295136	0	0	45.26201737535253	-10.01194194447007	0	60.15471217941871	1.04989778812039	-5.00163318295136	0	0	72.26811727705308	-5.321341932334292	-29.59784454669107	-31.10488103817343	-11.4735890262172	39.66167253496983	0.02133312024549505	0.4774879227073431	0	0	0	-13.4601445171726	0	89.53634082472649	0.4774879227073431	0	0
1.38	-3.369563125307837	26.20930026651536	-84.18551572929276	0	0.9399999998679526	0	45.25107124668318	-10.01039742354439	0	60.14913028484595	1.049800365681596	-5.001368434356928	0	0	45.25107124668318	-10.01039742354439	0	60.14913028484595	1.049800365681596	-5.001368434356928	0	0	68.99940578557531	-5.241828693639966	-29.99638400569771	-28.1186580175683	-10.19429930430473	40.56999638094285	0.02151037848353	0.4632286621467608	0	0	0	-13.494741210606	0	89.55018184912559	0.4632286621467608	0	0
1.39	-3.22447792522162	24.90540102940312	-84.47209710301821	0	0.9399999998679526	0	45.2434807200727	-10.00947724497602	0	60.14515150182289	1.049730922817622	-5.001217972238463	0	0	45.2434807200727	-10.00947724497602	0	60.14515150182289	1.049730922817622	-5.001217972238463	0	0	65.86033314604644	-5.120517771470704	-30.19266259924113	-25.13599452094254	-8.957646601451209	41.21234502856225	0.02141325112657184	0.4530562904052892	0	0	0	-13.51992008327371	0	89.56005585625086	0.4530562904052892	0	0
1.4	-3.130701401434902	23.65768719254023	-84.87704766971402	0	0.9399999998679526	0	45.23858667135428	-10.00891800002022	0	60.14259071788292	1.049686228706437	-5.001128336182257	0	0	45.23858667135428	-10.00891800002022	0	60.14259071788292	1.049686228706437	-5.001128336182257	0	0	63.74511975898253	-4.832362892651509	-30.21810419389844	-23.01238769466147	-8.111462039084552	41.72833015414329	0.02150953676338721	0.4464371101433749	0	0	0	-13.53639958379658	0	89.56648089011462	0.4464371101433749	0	0
1.41	-5.518084611348319	22.19037155755112	-81.97460323257469	0	0.9399999998679526	0	45.23030676176916	-10.00800536961392	0	60.13816748304367	1.049609028694903	-5.00098430379603	0	0	45.23030676176916	-10.00800536961392	0	60.13816748304367	1.049609028694903	-5.00098430379603	0	0	60.4321183579514	-5.514603920902699	-33.48744954986755	-20.05791766936071	-6.748654270987694	42.47826085023773	0.02175091616726032	0.4351693450392907	0	0	0	-13.5645893572846	0	89.57741816160876	0.4351693450392907	0	0
1.42	-4.728084909460419	21.07871930699115	-83.34002906629735	0	0.9399999998679526	0	45.22451946399483	-10.00744065625326	0	60.13504106859126	1.049554462468927	-5.000898549000773	0	0	45.22451946399483	-10.00744065625326	0	60.13504106859126	1.049554462468927	-5.000898549000773	0	0	57.50696475087563	-4.892820742738907	-32.66697779624189	-17.06430874086548	-5.37784073075025	43.0748538245153	0.02203773598753679	0.4271274277931806	0	0	0	-13.58499114549535	0	89.58522420191704	0.4271274277931806	0	0
1.43	-4.249746268477179	20.4900937416045	-84.16711373183463	0	0.9399999998679526	0	45.21768728403745	-10.00675627620198	0	60.13143811123625	1.049491579000273	-5.000795173089305	0	0	45.21768728403745	-10.00675627620198	0	60.13143811123625	1.049491579000273	-5.000795173089305	0	0	55.11911957927891	-4.416561900116314	-32.06404270286842	-14.0580610290449	-3.927290518190989	43.47098830920074	0.02332435575753977	0.4177562633866412	0	0	0	-13.6085115043448	0	89.5943205018344	0.4177562633866412	0	0
1.44	-3.551061511874892	19.30126317802739	-85.47131820453326	0	0.9399999998679526	0	45.21191373850215	-10.00626392108253	0	60.12826534944234	1.049436203860588	-5.000723928059765	0	0	45.21191373850215	-10.00626392108253	0	60.12826534944234	1.049436203860588	-5.000723928059765	0	0	52.11025333812987	-3.3406476073141	-30.63644001578128	-10.70849136830098	-2.910484425590234	42.98460092253319	0.02542789005815447	0.4095636626799279	0	0	0	-13.6295864581743	0	89.60227280551872	0.4095636626799279	0	0
1.45	-2.895551640092295	18.03157209455285	-86.61295312311174	0	0.9399999998679526	0	45.20666260027779	-10.0058366204834	0	60.12536230941415	1.049385536253779	-5.000663108967459	0	0	45.20666260027779	-10.0058366204834	0	60.12536230941415	1.049385536253779	-5.000663108967459	0	0	49.05439204159983	-2.584071195055312	-29.26547169385264	-7.434259532288244	-1.668545382375662	42.60428551016356	0.02911504349330806	0.4020549570465884	0	0	0	-13.64900318682928	0	89.60956127327336	0.4020549570465884	0	0
1.46	-2.417289129197222	16.86623707888531	-87.3861964928456	0	0.9399999998679526	0	45.20659697687825	-10.0058301785374	0	60.12533097220548	1.049384989316309	-5.000662155045968	0	0	45.20659697687825	-10.0058301785374	0	60.12533097220548	1.049384989316309	-5.000662155045968	0	0	46.07503405601526	-2.129355329531721	-28.17311081136825	-3.65991778618152	-0.890178644388204	42.65276544965072	0.03875744791469748	0.401965970671214	0	0	0	-13.64922348309017	0	89.60964764961089	0.401965970671214	0	0
1.47	-2.021293888887678	15.63601164575056	-87.58222136127449	0	0.9399999998679526	0	45.20653235701491	-10.00582383150773	0	60.12530014613985	1.049384451299968	-5.000661215254439	0	0	45.20653235701491	-10.00582383150773	0	60.12530014613985	1.049384451299968	-5.000661215254439	0	0	43.2811043416358	-2.174477103825342	-27.6655430032361	-0.1492006960853467	-0.2224753242812536	42.87039938214954	0.0615730499090613	0.4018783739348805	0	0	0	-13.6494402729695	0	89.60973267706866	0.4018783739348805	0	0
